HIERARCHY
ROOT Hips
{
	OFFSET -339.306915 540.749023 89.171944
	CHANNELS 6 Xposition Yposition Zposition Zrotation Yrotation Xrotation
	JOINT Spine
	{
		OFFSET 0.000000 2.080078 8.814247
		CHANNELS 6 Xposition Yposition Zposition Zrotation Yrotation Xrotation
		JOINT Spine1
		{
			OFFSET 0.000000 0.000000 8.844139
			CHANNELS 6 Xposition Yposition Zposition Zrotation Yrotation Xrotation
			JOINT Spine2
			{
				OFFSET 0.000000 0.000000 11.682266
				CHANNELS 6 Xposition Yposition Zposition Zrotation Yrotation Xrotation
				JOINT Spine3
				{
					OFFSET 0.000000 0.000000 11.746696
					CHANNELS 6 Xposition Yposition Zposition Zrotation Yrotation Xrotation
					JOINT Neck
					{
						OFFSET 0.000000 0.000000 17.658264
						CHANNELS 6 Xposition Yposition Zposition Zrotation Yrotation Xrotation
						JOINT Neck1
						{
							OFFSET 0.000000 0.000000 5.101517
							CHANNELS 6 Xposition Yposition Zposition Zrotation Yrotation Xrotation
							JOINT Head
							{
								OFFSET 0.000000 0.000000 5.101517
								CHANNELS 6 Xposition Yposition Zposition Zrotation Yrotation Xrotation
								JOINT HeadEnd
								{
									OFFSET 0.000000 0.000000 11.655090
									CHANNELS 6 Xposition Yposition Zposition Zrotation Yrotation Xrotation
									End Site
									{
										OFFSET 0.000000 0.000000 0.100006
									}
								}
							}
						}
					}
					JOINT RightShoulder
					{
						OFFSET -2.625397 0.000000 11.175217
						CHANNELS 6 Xposition Yposition Zposition Zrotation Yrotation Xrotation
						JOINT RightArm
						{
							OFFSET 0.000000 0.000000 10.434708
							CHANNELS 6 Xposition Yposition Zposition Zrotation Yrotation Xrotation
							JOINT RightForeArm
							{
								OFFSET 0.000000 0.000000 29.628418
								CHANNELS 6 Xposition Yposition Zposition Zrotation Yrotation Xrotation
								JOINT RightHand
								{
									OFFSET 0.000000 0.000000 22.857605
									CHANNELS 6 Xposition Yposition Zposition Zrotation Yrotation Xrotation
									JOINT RightHandThumb1
									{
										OFFSET -2.867310 -2.944275 3.959564
										CHANNELS 6 Xposition Yposition Zposition Zrotation Yrotation Xrotation
										JOINT RightHandThumb2
										{
											OFFSET 0.000000 0.000000 3.350403
											CHANNELS 6 Xposition Yposition Zposition Zrotation Yrotation Xrotation
											JOINT RightHandThumb3
											{
												OFFSET 0.000000 0.000000 3.756516
												CHANNELS 6 Xposition Yposition Zposition Zrotation Yrotation Xrotation
												JOINT RightHandThumb4
												{
													OFFSET 0.000000 0.000000 3.147339
													CHANNELS 6 Xposition Yposition Zposition Zrotation Yrotation Xrotation
													End Site
													{
														OFFSET 0.000000 0.000000 0.100006
													}
												}
											}
										}
									}
									JOINT RightHandIndex1
									{
										OFFSET -0.086761 -2.345276 10.030899
										CHANNELS 6 Xposition Yposition Zposition Zrotation Yrotation Xrotation
										JOINT RightHandIndex2
										{
											OFFSET 0.000000 0.000000 4.061096
											CHANNELS 6 Xposition Yposition Zposition Zrotation Yrotation Xrotation
											JOINT RightHandIndex3
											{
												OFFSET 0.000000 0.000000 3.248871
												CHANNELS 6 Xposition Yposition Zposition Zrotation Yrotation Xrotation
												JOINT RightHandIndex4
												{
													OFFSET 0.000000 0.000000 2.639709
													CHANNELS 6 Xposition Yposition Zposition Zrotation Yrotation Xrotation
													End Site
													{
														OFFSET 0.000000 0.000000 0.100006
													}
												}
											}
										}
									}
									JOINT RightHandMiddle1
									{
										OFFSET 0.104095 -0.006775 9.502945
										CHANNELS 6 Xposition Yposition Zposition Zrotation Yrotation Xrotation
										JOINT RightHandMiddle2
										{
											OFFSET 0.000000 0.000000 4.568726
											CHANNELS 6 Xposition Yposition Zposition Zrotation Yrotation Xrotation
											JOINT RightHandMiddle3
											{
												OFFSET 0.000000 0.000000 3.654984
												CHANNELS 6 Xposition Yposition Zposition Zrotation Yrotation Xrotation
												JOINT RightHandMiddle4
												{
													OFFSET 0.000000 0.000000 2.741241
													CHANNELS 6 Xposition Yposition Zposition Zrotation Yrotation Xrotation
													End Site
													{
														OFFSET 0.000000 0.000000 0.100006
													}
												}
											}
										}
									}
									JOINT RightHandRing1
									{
										OFFSET 0.086761 2.267456 8.921707
										CHANNELS 6 Xposition Yposition Zposition Zrotation Yrotation Xrotation
										JOINT RightHandRing2
										{
											OFFSET 0.000000 0.000000 4.061096
											CHANNELS 6 Xposition Yposition Zposition Zrotation Yrotation Xrotation
											JOINT RightHandRing3
											{
												OFFSET 0.000000 0.000000 3.654984
												CHANNELS 6 Xposition Yposition Zposition Zrotation Yrotation Xrotation
												JOINT RightHandRing4
												{
													OFFSET 0.000000 0.000000 2.741241
													CHANNELS 6 Xposition Yposition Zposition Zrotation Yrotation Xrotation
													End Site
													{
														OFFSET 0.000000 0.000000 0.100006
													}
												}
											}
										}
									}
									JOINT RightHandPinky1
									{
										OFFSET -0.173492 4.467224 7.976990
										CHANNELS 6 Xposition Yposition Zposition Zrotation Yrotation Xrotation
										JOINT RightHandPinky2
										{
											OFFSET 0.000000 0.000000 3.350403
											CHANNELS 6 Xposition Yposition Zposition Zrotation Yrotation Xrotation
											JOINT RightHandPinky3
											{
												OFFSET 0.000000 0.000000 2.842758
												CHANNELS 6 Xposition Yposition Zposition Zrotation Yrotation Xrotation
												JOINT RightHandPinky4
												{
													OFFSET 0.000000 0.000000 2.639709
													CHANNELS 6 Xposition Yposition Zposition Zrotation Yrotation Xrotation
													End Site
													{
														OFFSET 0.000000 0.000000 0.100006
													}
												}
											}
										}
									}
									JOINT RightForeArmEnd
									{
										OFFSET 0.000000 0.000000 0.000000
										CHANNELS 6 Xposition Yposition Zposition Zrotation Yrotation Xrotation
										End Site
										{
											OFFSET 0.000000 0.000000 0.100006
										}
									}
								}
								JOINT RightArmEnd
								{
									OFFSET 0.000000 0.000000 0.000000
									CHANNELS 6 Xposition Yposition Zposition Zrotation Yrotation Xrotation
									End Site
									{
										OFFSET 0.000000 0.000000 0.100006
									}
								}
							}
						}
					}
					JOINT LeftShoulder
					{
						OFFSET 2.625397 0.000000 11.175217
						CHANNELS 6 Xposition Yposition Zposition Zrotation Yrotation Xrotation
						JOINT LeftArm
						{
							OFFSET 0.000000 0.000000 10.813629
							CHANNELS 6 Xposition Yposition Zposition Zrotation Yrotation Xrotation
							JOINT LeftForeArm
							{
								OFFSET 0.000000 0.000000 28.724777
								CHANNELS 6 Xposition Yposition Zposition Zrotation Yrotation Xrotation
								JOINT LeftHand
								{
									OFFSET 0.644379 0.328857 25.716171
									CHANNELS 6 Xposition Yposition Zposition Zrotation Yrotation Xrotation
									JOINT LeftHandThumb1
									{
										OFFSET 2.867310 -2.944275 3.959564
										CHANNELS 6 Xposition Yposition Zposition Zrotation Yrotation Xrotation
										JOINT LeftHandThumb2
										{
											OFFSET 0.000000 0.000000 3.350403
											CHANNELS 6 Xposition Yposition Zposition Zrotation Yrotation Xrotation
											JOINT LeftHandThumb3
											{
												OFFSET 0.000000 0.000000 3.756516
												CHANNELS 6 Xposition Yposition Zposition Zrotation Yrotation Xrotation
												JOINT LeftHandThumb4
												{
													OFFSET 0.000000 0.000000 3.100006
													CHANNELS 6 Xposition Yposition Zposition Zrotation Yrotation Xrotation
													End Site
													{
														OFFSET 0.000000 0.000000 0.100006
													}
												}
											}
										}
									}
									JOINT LeftHandIndex1
									{
										OFFSET 0.086761 -2.345276 10.030899
										CHANNELS 6 Xposition Yposition Zposition Zrotation Yrotation Xrotation
										JOINT LeftHandIndex2
										{
											OFFSET 0.000000 0.000000 4.061096
											CHANNELS 6 Xposition Yposition Zposition Zrotation Yrotation Xrotation
											JOINT LeftHandIndex3
											{
												OFFSET 0.000000 0.000000 3.248871
												CHANNELS 6 Xposition Yposition Zposition Zrotation Yrotation Xrotation
												JOINT LeftHandIndex4
												{
													OFFSET 0.000000 0.000000 2.639709
													CHANNELS 6 Xposition Yposition Zposition Zrotation Yrotation Xrotation
													End Site
													{
														OFFSET 0.000000 0.000000 0.100006
													}
												}
											}
										}
									}
									JOINT LeftHandMiddle1
									{
										OFFSET -0.104095 -0.006775 9.502945
										CHANNELS 6 Xposition Yposition Zposition Zrotation Yrotation Xrotation
										JOINT LeftHandMiddle2
										{
											OFFSET 0.000000 0.000000 4.568726
											CHANNELS 6 Xposition Yposition Zposition Zrotation Yrotation Xrotation
											JOINT LeftHandMiddle3
											{
												OFFSET 0.000000 0.000000 3.654984
												CHANNELS 6 Xposition Yposition Zposition Zrotation Yrotation Xrotation
												JOINT LeftHandMiddle4
												{
													OFFSET 0.000000 0.000000 2.741241
													CHANNELS 6 Xposition Yposition Zposition Zrotation Yrotation Xrotation
													End Site
													{
														OFFSET 0.000000 0.000000 0.100006
													}
												}
											}
										}
									}
									JOINT LeftHandRing1
									{
										OFFSET -0.086761 2.267456 8.921707
										CHANNELS 6 Xposition Yposition Zposition Zrotation Yrotation Xrotation
										JOINT LeftHandRing2
										{
											OFFSET 0.000000 0.000000 4.061096
											CHANNELS 6 Xposition Yposition Zposition Zrotation Yrotation Xrotation
											JOINT LeftHandRing3
											{
												OFFSET 0.000000 0.000000 3.654984
												CHANNELS 6 Xposition Yposition Zposition Zrotation Yrotation Xrotation
												JOINT LeftHandRing4
												{
													OFFSET 0.000000 0.000000 2.741241
													CHANNELS 6 Xposition Yposition Zposition Zrotation Yrotation Xrotation
													End Site
													{
														OFFSET 0.000000 0.000000 0.100006
													}
												}
											}
										}
									}
									JOINT LeftHandPinky1
									{
										OFFSET 0.173492 4.467224 7.976990
										CHANNELS 6 Xposition Yposition Zposition Zrotation Yrotation Xrotation
										JOINT LeftHandPinky2
										{
											OFFSET 0.000000 0.000000 3.350403
											CHANNELS 6 Xposition Yposition Zposition Zrotation Yrotation Xrotation
											JOINT LeftHandPinky3
											{
												OFFSET 0.000000 0.000000 2.842758
												CHANNELS 6 Xposition Yposition Zposition Zrotation Yrotation Xrotation
												JOINT LeftHandPinky4
												{
													OFFSET 0.000000 0.000000 2.639709
													CHANNELS 6 Xposition Yposition Zposition Zrotation Yrotation Xrotation
													End Site
													{
														OFFSET 0.000000 0.000000 0.100006
													}
												}
											}
										}
									}
									JOINT LeftForeArmEnd
									{
										OFFSET 0.000000 0.000000 0.000000
										CHANNELS 6 Xposition Yposition Zposition Zrotation Yrotation Xrotation
										End Site
										{
											OFFSET 0.000000 0.000000 0.100006
										}
									}
								}
								JOINT LeftArmEnd
								{
									OFFSET 0.000000 0.000000 0.000000
									CHANNELS 6 Xposition Yposition Zposition Zrotation Yrotation Xrotation
									End Site
									{
										OFFSET 0.000000 0.000000 0.100006
									}
								}
							}
						}
					}
				}
			}
		}
	}
	JOINT RightUpLeg
	{
		OFFSET -11.289948 0.000000 0.000000
		CHANNELS 6 Xposition Yposition Zposition Zrotation Yrotation Xrotation
		JOINT RightLeg
		{
			OFFSET 0.000000 0.000000 -38.200329
			CHANNELS 6 Xposition Yposition Zposition Zrotation Yrotation Xrotation
			JOINT RightFoot
			{
				OFFSET 0.000000 0.000000 -39.900856
				CHANNELS 6 Xposition Yposition Zposition Zrotation Yrotation Xrotation
				JOINT RightToeBase
				{
					OFFSET 0.000000 -15.261658 0.000001
					CHANNELS 6 Xposition Yposition Zposition Zrotation Yrotation Xrotation
					JOINT RightToeBaseEnd
					{
						OFFSET 0.000000 -7.370728 0.000001
						CHANNELS 6 Xposition Yposition Zposition Zrotation Yrotation Xrotation
						End Site
						{
							OFFSET 0.000000 0.000000 0.100000
						}
					}
				}
				JOINT RightLegEnd
				{
					OFFSET 0.000000 0.000000 0.000000
					CHANNELS 6 Xposition Yposition Zposition Zrotation Yrotation Xrotation
					End Site
					{
						OFFSET 0.000000 0.000000 0.100000
					}
				}
			}
			JOINT RightUpLegEnd
			{
				OFFSET 0.000000 0.000000 0.000000
				CHANNELS 6 Xposition Yposition Zposition Zrotation Yrotation Xrotation
				End Site
				{
					OFFSET 0.000000 0.000000 0.099998
				}
			}
		}
	}
	JOINT LeftUpLeg
	{
		OFFSET 11.315674 0.000000 0.000000
		CHANNELS 6 Xposition Yposition Zposition Zrotation Yrotation Xrotation
		JOINT LeftLeg
		{
			OFFSET 0.000000 0.000000 -38.200329
			CHANNELS 6 Xposition Yposition Zposition Zrotation Yrotation Xrotation
			JOINT LeftFoot
			{
				OFFSET 0.000000 0.000000 -39.900856
				CHANNELS 6 Xposition Yposition Zposition Zrotation Yrotation Xrotation
				JOINT LeftToeBase
				{
					OFFSET 0.000000 -15.261658 0.000001
					CHANNELS 6 Xposition Yposition Zposition Zrotation Yrotation Xrotation
					JOINT LeftToeBaseEnd
					{
						OFFSET 0.000000 -7.539978 0.000001
						CHANNELS 6 Xposition Yposition Zposition Zrotation Yrotation Xrotation
						End Site
						{
							OFFSET 0.000000 0.000000 0.100000
						}
					}
				}
				JOINT LeftLegEnd
				{
					OFFSET 0.000000 0.000000 0.000000
					CHANNELS 6 Xposition Yposition Zposition Zrotation Yrotation Xrotation
					End Site
					{
						OFFSET 0.000000 0.000000 0.100000
					}
				}
			}
			JOINT LeftUpLegEnd
			{
				OFFSET 0.000000 0.000000 0.000000
				CHANNELS 6 Xposition Yposition Zposition Zrotation Yrotation Xrotation
				End Site
				{
					OFFSET 0.000000 0.000000 0.099998
				}
			}
		}
	}
}
MOTION
Frames: 2
Frame Time: 0.016667
16.447327 -50.254822 76.631310 -8.048572 -1.533631 -27.984602 0.000004 2.080047 8.814249 0.089112 0.897509 10.727668 -0.000003 -0.000023 8.844158 0.358304 -0.622144 2.824401 -0.000010 -0.000011 11.682268 -0.515440 -1.122373 10.607436 0.000002 -0.000006 11.746690 -0.160354 -1.901308 9.966258 0.000000 -0.000011 17.658287 13.167470 20.182927 5.350106 0.000008 0.000002 5.101536 8.267079 1.384606 -8.390978 0.000012 -0.000022 5.101555 -1.265822 5.646291 -21.094884 0.000014 0.000003 11.655105 -0.000001 -0.000002 -0.000000 -2.625404 -0.000011 11.175231 19.682276 -61.665106 -0.176564 0.000015 0.000008 10.434723 13.646875 -5.479729 34.136736 0.000002 -0.000042 29.628454 10.133610 0.410643 102.171140 -0.000008 -0.000031 22.857574 -58.043740 27.648712 -26.881827 -2.867310 -2.944260 3.959572 32.936245 -12.199633 59.927731 -0.000035 0.000006 3.350393 -1.805603 1.696636 -3.565747 -0.000043 0.000015 3.756516 -1.242652 1.190195 -2.470583 -0.000009 -0.000015 3.147334 0.000001 0.000002 0.000000 -0.086769 -2.345276 10.030930 200.287101 -221.156075 -143.848934 -0.000007 0.000011 4.061109 -0.652415 -0.000327 -0.000524 0.000038 -0.000017 3.248869 -0.143747 0.000219 -0.000585 -0.000005 0.000000 2.639717 -0.000000 0.000002 -0.000000 0.104107 -0.006767 9.502945 194.472069 -223.230075 -154.314573 -0.000025 0.000027 4.568719 -0.584261 -0.000212 0.000233 -0.000003 0.000028 3.654993 -0.071884 -0.000002 0.007148 0.000004 -0.000074 2.741255 0.000001 0.000002 0.000000 0.086777 2.267453 8.921700 183.285804 -223.455171 -170.240238 0.000012 0.000035 4.061124 1.104546 -0.000575 0.000124 -0.000007 -0.000024 3.654970 0.151492 -0.000004 0.024627 -0.000011 0.000004 2.741245 -0.000000 -0.000003 -0.000001 -0.173500 4.467215 7.976982 171.391399 -217.871683 -185.110066 -0.000007 -0.000001 3.350416 2.004544 -0.016632 -0.000714 0.000002 0.000018 2.842758 0.096810 0.000079 -0.000032 0.000003 -0.000008 2.639713 0.000000 0.000000 -0.000001 0.000000 -0.000000 0.000006 0.000000 0.000000 -0.000003 0.000008 0.000016 -0.000007 -0.000001 -0.000000 -0.000002 2.625404 -0.000011 11.175238 -26.018865 69.744291 -0.089853 0.000013 -0.000013 10.813683 2.910474 12.061917 41.604660 -0.000016 0.000042 28.724751 -1.079586 0.008362 117.664857 0.644432 0.328812 25.716148 70.838501 -53.392306 -13.460335 2.867310 -2.944290 3.959564 -32.415955 13.591537 57.445648 0.000000 -0.000015 3.350409 4.708416 -4.020491 -9.020820 -0.000014 -0.000008 3.756512 3.201690 -2.871526 -6.226804 -0.000034 0.000000 3.100006 -0.000000 -0.000000 0.000000 0.086777 -2.345282 10.030872 5.366455 -20.733958 4.518116 0.000014 0.000023 4.061096 -0.668226 0.019981 -0.094240 -0.000000 0.000023 3.248889 -0.156771 -0.010861 -0.078096 0.000006 -0.000005 2.639716 0.000000 -0.000000 -0.000001 -0.104106 -0.006792 9.502953 -0.073932 -20.881155 3.641222 -0.000006 0.000002 4.568728 -0.662537 -0.048438 -0.017967 -0.000010 -0.000002 3.654985 -0.115499 0.026941 -0.014141 0.000007 -0.000009 2.741249 -0.000000 0.000000 -0.000001 -0.086784 2.267454 8.921698 -9.042201 -22.317843 2.562370 -0.000011 0.000008 4.061109 1.139902 -0.000293 -0.000057 -0.000009 -0.000006 3.654996 0.161138 0.000000 0.000001 -0.000006 0.000005 2.741263 -0.000002 -0.000001 -0.000000 0.173492 4.467255 7.977001 -18.534936 -23.168114 3.946391 -0.000005 0.000017 3.350415 2.067138 0.034338 0.001209 -0.000000 -0.000026 2.842748 0.056088 -0.018365 0.002876 0.000007 -0.000013 2.639720 0.000000 0.000000 0.000001 0.000021 -0.000028 0.000007 -0.000003 -0.000001 -0.000000 -0.000005 0.000002 -0.000009 -0.000001 0.000001 0.000000 -11.289963 -0.000023 0.000005 0.791071 1.154428 2.987901 0.000006 0.000029 -38.200253 0.108515 -0.211472 63.769255 0.000009 0.000031 -39.900848 -10.874603 -1.467445 -13.847831 -0.000003 -15.261618 -0.000012 0.153059 1.321416 -14.890593 0.000005 -7.370679 0.000001 0.000002 0.000000 0.000000 -0.000012 0.000060 -0.000001 0.000000 0.000000 0.000002 0.000001 -0.000001 0.000001 0.000000 -0.000000 -0.000001 11.315681 -0.000002 -0.000002 8.653800 -1.598722 4.371088 -0.000021 0.000060 -38.200253 -0.044636 0.084362 62.118385 0.000001 -0.000012 -39.900860 10.148945 3.737473 -12.638656 -0.000003 -15.261614 -0.000008 -0.503287 -0.758865 -15.802421 -0.000009 -7.539975 0.000002 -0.000000 -0.000000 0.000000 0.000006 -0.000063 0.000001 0.000000 0.000000 -0.000000 0.000000 0.000002 -0.000002 0.000000 0.000000 -0.000001 
16.445190 -50.208313 76.239601 -8.065567 -1.466176 -28.422398 -0.000000 2.080069 8.814249 0.069175 0.877846 10.990714 -0.000006 -0.000017 8.844140 0.325027 -0.624422 2.933307 -0.000013 0.000012 11.682280 -0.660574 -1.182911 10.862147 -0.000007 -0.000004 11.746690 -0.236810 -2.034554 9.982867 0.000008 0.000075 17.658283 13.139150 19.921667 5.493794 -0.000001 0.000013 5.101523 8.183618 1.360583 -8.289456 -0.000006 -0.000005 5.101521 -1.196653 5.533590 -21.046292 -0.000004 -0.000001 11.655096 0.000001 -0.000000 0.000001 -2.625404 0.000008 11.175210 20.010894 -61.045485 -0.170397 0.000040 -0.000031 10.434727 12.698359 -6.537725 33.623392 0.000000 -0.000034 29.628439 9.917690 0.384564 102.517745 -0.000038 -0.000029 22.857544 -58.525166 27.487787 -26.928817 -2.867287 -2.944305 3.959587 32.936412 -12.199519 59.927936 0.000010 -0.000011 3.350398 -1.805603 1.696619 -3.565857 0.000008 0.000003 3.756525 -1.242644 1.190028 -2.470813 0.000004 0.000008 3.147358 -0.000001 0.000002 0.000003 -0.086727 -2.345276 10.030884 200.464181 -221.497065 -143.708150 0.000018 0.000015 4.061103 -0.654307 -0.000249 -0.000526 0.000005 -0.000016 3.248861 -0.145518 0.000157 -0.000565 -0.000008 -0.000004 2.639703 0.000000 -0.000003 -0.000000 0.104134 -0.006763 9.502991 194.596925 -223.522476 -154.206998 -0.000008 -0.000020 4.568728 -0.585573 -0.000189 0.000234 -0.000001 0.000014 3.654970 -0.073010 0.000001 0.007342 0.000009 -0.000003 2.741252 -0.000000 -0.000003 -0.000000 0.086796 2.267446 8.921700 183.329435 -223.643425 -170.133278 -0.000009 -0.000027 4.061098 1.105273 -0.000624 0.000122 -0.000003 0.000014 3.654967 0.151751 -0.000014 0.025159 0.000015 0.000003 2.741249 0.000000 -0.000003 -0.000001 -0.173473 4.467234 7.976974 171.385593 -217.973958 -184.898958 -0.000006 -0.000010 3.350424 2.004668 -0.000203 -0.000136 0.000011 -0.000026 2.842782 0.099404 0.000053 -0.000035 -0.000036 -0.000005 2.639678 0.000000 -0.000003 -0.000002 0.000034 -0.000005 0.000003 -0.000001 0.000002 -0.000001 -0.000013 -0.000006 -0.000014 0.000001 -0.000000 0.000000 2.625404 -0.000015 11.175216 -26.019493 70.162353 -0.107067 0.000008 -0.000034 10.813606 3.256639 12.064827 41.614000 -0.000004 -0.000009 28.724777 0.354324 2.553608 117.353250 0.644424 0.328903 25.716202 74.135549 -53.016646 -14.199169 2.867310 -2.944290 3.959579 -32.468271 13.433361 57.719839 0.000002 -0.000017 3.350414 4.374760 -3.776079 -8.408461 -0.000014 -0.000017 3.756499 2.978502 -2.691125 -5.806263 0.000013 0.000011 3.100019 -0.000002 -0.000000 -0.000000 0.086746 -2.345285 10.030884 5.298281 -21.240956 4.982588 -0.000010 -0.000028 4.061117 -0.668993 0.000141 -0.094272 0.000007 0.000019 3.248884 -0.157428 -0.000005 -0.078218 -0.000006 -0.000001 2.639716 0.000000 -0.000000 0.000001 -0.104098 -0.006765 9.502937 -0.150373 -21.390189 4.145256 -0.000007 0.000021 4.568727 -0.662883 0.185903 -0.021194 0.000005 0.000010 3.654982 -0.115410 -0.103049 -0.014154 0.000011 -0.000020 2.741264 0.000002 -0.000000 -0.000001 -0.086761 2.267486 8.921703 -9.097703 -22.515430 3.081984 0.000031 0.000018 4.061082 1.140039 -0.000301 -0.000060 -0.000008 -0.000028 3.655009 0.162297 0.000001 0.000004 0.000013 -0.000002 2.741256 -0.000000 -0.000000 0.000000 0.173492 4.467256 7.976982 -18.532120 -23.063821 4.427513 0.000002 -0.000012 3.350404 2.067651 -0.000002 -0.000029 0.000012 0.000012 2.842765 0.056494 0.000006 0.002978 -0.000008 -0.000009 2.639713 0.000002 0.000000 0.000002 0.000013 -0.000003 0.000013 -0.000000 -0.000001 0.000002 0.000004 0.000001 0.000006 0.000000 -0.000001 -0.000001 -11.289948 -0.000030 -0.000002 0.742614 1.096487 2.830883 0.000007 0.000020 -38.200253 0.109685 -0.219219 64.890171 -0.000002 0.000039 -39.900879 -10.854401 -1.571541 -14.263142 -0.000011 -15.261651 0.000007 0.151174 1.335834 -14.801360 0.000002 -7.370662 -0.000001 -0.000001 0.000000 0.000000 -0.000010 0.000066 -0.000001 -0.000001 0.000000 0.000002 -0.000001 0.000002 -0.000018 0.000000 0.000000 -0.000006 11.315691 0.000075 0.000003 8.613422 -1.661958 3.943269 -0.000015 0.000041 -38.200218 -0.057005 0.115193 63.672526 -0.000038 -0.000019 -39.900856 10.376689 3.865304 -12.717595 0.000001 -15.261616 0.000011 -0.432963 -0.742212 -16.296142 -0.000006 -7.539918 0.000002 0.000000 0.000000 -0.000000 -0.000004 -0.000061 0.000003 -0.000000 0.000000 -0.000001 -0.000000 0.000064 -0.000001 -0.000000 -0.000000 -0.000005 
